
  <svg width="273" height="48" viewBox="0 0 1456 256" fill="none" xmlns="http://www.w3.org/2000/svg" xmlns:xlink="http://www.w3.org/1999/xlink" version="1.1">
    
        <g transform="translate(0, 0)">
          <svg width="256" height="256" viewBox="0 0 256 256" fill="none" xmlns="http://www.w3.org/2000/svg">
<rect width="256" height="256" rx="60" fill="#242938"/>
<path d="M218 218H38V38H218L128 128L218 218Z" fill="url(#paint0_linear_7_120)"/>
<defs>
<linearGradient id="paint0_linear_7_120" x1="218" y1="38" x2="38" y2="218" gradientUnits="userSpaceOnUse">
<stop offset="0.00343514" stop-color="#E44857"/>
<stop offset="0.4689" stop-color="#C711E1"/>
<stop offset="1" stop-color="#7F52FF"/>
</linearGradient>
</defs>
</svg>

        </g>
         
        <g transform="translate(300, 0)">
          <svg width="256" height="256" viewBox="0 0 256 256" fill="none" xmlns="http://www.w3.org/2000/svg">
<rect width="256" height="256" rx="60" fill="#F0DB4F"/>
<path d="M67.3117 213.932L86.9027 202.076C90.6821 208.777 94.1202 214.447 102.367 214.447C110.272 214.447 115.256 211.355 115.256 199.327V117.529H139.314V199.667C139.314 224.584 124.708 235.926 103.398 235.926C84.1533 235.926 72.9819 225.959 67.3113 213.93" fill="#323330"/>
<path d="M152.381 211.354L171.969 200.013C177.126 208.434 183.828 214.62 195.684 214.62C205.653 214.62 212.009 209.636 212.009 202.762C212.009 194.514 205.479 191.592 194.481 186.782L188.468 184.203C171.111 176.815 159.597 167.535 159.597 147.945C159.597 129.901 173.345 116.153 194.826 116.153C210.12 116.153 221.118 121.481 229.022 135.4L210.291 147.429C206.166 140.04 201.7 137.119 194.826 137.119C187.78 137.119 183.312 141.587 183.312 147.429C183.312 154.646 187.78 157.568 198.09 162.037L204.104 164.614C224.553 173.379 236.067 182.313 236.067 202.418C236.067 224.072 219.055 235.928 196.2 235.928C173.861 235.928 159.426 225.274 152.381 211.354" fill="#323330"/>
</svg>

        </g>
         
        <g transform="translate(600, 0)">
          <svg xmlns="http://www.w3.org/2000/svg" width="256" height="256" fill="none" viewBox="0 0 256 256"><rect width="256" height="256" fill="#242938" rx="60"/><path fill="url(#paint0_linear_2_47)" d="M127.279 29C76.5066 29 79.6772 51.018 79.6772 51.018L79.7338 73.8284H128.185V80.6772H60.4893C60.4893 80.6772 28 76.9926 28 128.222C28 179.452 56.3573 177.636 56.3573 177.636H73.2812V153.863C73.2812 153.863 72.369 125.506 101.186 125.506H149.24C149.24 125.506 176.239 125.942 176.239 99.4123V55.5461C176.239 55.5461 180.338 29 127.279 29ZM100.563 44.339C105.384 44.339 109.28 48.2351 109.28 53.0556C109.28 57.8761 105.384 61.7723 100.563 61.7723C95.7426 61.7723 91.8465 57.8761 91.8465 53.0556C91.8465 48.2351 95.7426 44.339 100.563 44.339Z"/><path fill="url(#paint1_linear_2_47)" d="M128.721 227.958C179.493 227.958 176.323 205.941 176.323 205.941L176.266 183.13H127.815V176.281H195.511C195.511 176.281 228 179.966 228 128.736C228 77.5062 199.643 79.323 199.643 79.323H182.719V103.096C182.719 103.096 183.631 131.453 154.814 131.453H106.76C106.76 131.453 79.7607 131.016 79.7607 157.546V201.412C79.7607 201.412 75.6615 227.958 128.721 227.958ZM155.437 212.619C150.616 212.619 146.72 208.723 146.72 203.903C146.72 199.082 150.616 195.186 155.437 195.186C160.257 195.186 164.154 199.082 164.154 203.903C164.154 208.723 160.257 212.619 155.437 212.619Z"/><defs><linearGradient id="paint0_linear_2_47" x1="47.22" x2="146.333" y1="46.896" y2="145.02" gradientUnits="userSpaceOnUse"><stop stop-color="#387EB8"/><stop offset="1" stop-color="#366994"/></linearGradient><linearGradient id="paint1_linear_2_47" x1="108.056" x2="214.492" y1="109.905" y2="210.522" gradientUnits="userSpaceOnUse"><stop stop-color="#FFE052"/><stop offset="1" stop-color="#FFC331"/></linearGradient></defs></svg>
        </g>
         
        <g transform="translate(900, 0)">
          <svg xmlns="http://www.w3.org/2000/svg" width="256" height="256" fill="none" viewBox="0 0 256 256"><rect width="256" height="256" fill="#00B4E0" rx="60"/><path fill="#fff" d="M40.5 113.234C40.1 113.234 40 113.034 40.2 112.734L42.3 110.034C42.5 109.734 43 109.534 43.4 109.534H79.1C79.5 109.534 79.6 109.834 79.4 110.134L77.7 112.734C77.5 113.034 77 113.334 76.7 113.334L40.5 113.234Z"/><path fill="#fff" d="M25.4 122.434C25 122.434 24.9 122.234 25.1 121.934L27.2 119.234C27.4 118.934 27.9 118.734 28.3 118.734H73.9C74.3 118.734 74.5 119.034 74.4 119.334L73.6 121.734C73.5 122.134 73.1 122.334 72.7 122.334L25.4 122.434Z"/><path fill="#fff" d="M49.6 131.634C49.2 131.634 49.1 131.334 49.3 131.034L50.7 128.534C50.9 128.234 51.3 127.934 51.7 127.934H71.7C72.1 127.934 72.3 128.234 72.3 128.634L72.1 131.034C72.1 131.434 71.7 131.734 71.4 131.734L49.6 131.634Z"/><path fill="#fff" d="M153.4 111.434C147.1 113.034 142.8 114.234 136.6 115.834C135.1 116.234 135 116.334 133.7 114.834C132.2 113.134 131.1 112.034 129 111.034C122.7 107.934 116.6 108.834 110.9 112.534C104.1 116.934 100.6 123.434 100.7 131.534C100.8 139.534 106.3 146.134 114.2 147.234C121 148.134 126.7 145.734 131.2 140.634C132.1 139.534 132.9 138.334 133.9 136.934C130.3 136.934 125.8 136.934 114.6 136.934C112.5 136.934 112 135.634 112.7 133.934C114 130.834 116.4 125.634 117.8 123.034C118.1 122.434 118.8 121.434 120.3 121.434C125.4 121.434 144.2 121.434 156.7 121.434C156.5 124.134 156.5 126.834 156.1 129.534C155 136.734 152.3 143.334 147.9 149.134C140.7 158.634 131.3 164.534 119.4 166.134C109.6 167.434 100.5 165.534 92.5 159.534C85.1 153.934 80.9 146.534 79.8 137.334C78.5 126.434 81.7 116.634 88.3 108.034C95.4 98.7343 104.8 92.8343 116.3 90.7343C125.7 89.0343 134.7 90.1343 142.8 95.6343C148.1 99.1343 151.9 103.934 154.4 109.734C155 110.634 154.6 111.134 153.4 111.434Z"/><path fill="#fff" d="M186.5 166.734C177.4 166.534 169.1 163.934 162.1 157.934C156.2 152.834 152.5 146.334 151.3 138.634C149.5 127.334 152.6 117.334 159.4 108.434C166.7 98.8343 175.5 93.8343 187.4 91.7343C197.6 89.9343 207.2 90.9343 215.9 96.8343C223.8 102.234 228.7 109.534 230 119.134C231.7 132.634 227.8 143.634 218.5 153.034C211.9 159.734 203.8 163.934 194.5 165.834C191.8 166.334 189.1 166.434 186.5 166.734ZM210.3 126.334C210.2 125.034 210.2 124.034 210 123.034C208.2 113.134 199.1 107.534 189.6 109.734C180.3 111.834 174.3 117.734 172.1 127.134C170.3 134.934 174.1 142.834 181.3 146.034C186.8 148.434 192.3 148.134 197.6 145.434C205.5 141.334 209.8 134.934 210.3 126.334Z"/></svg>
        </g>
         
        <g transform="translate(1200, 0)">
          <svg xmlns="http://www.w3.org/2000/svg" width="256" height="256" fill="none" viewBox="0 0 256 256"><rect width="256" height="256" fill="#242938" rx="60"/><path fill="#fff" d="M101.634 182.619C101.634 182.619 93.9548 187.293 106.979 188.63C122.707 190.634 131.023 190.299 148.386 186.962C148.386 186.962 153.06 189.971 159.406 192.306C120.331 209.002 70.9089 191.304 101.634 182.619ZM96.6252 160.914C96.6252 160.914 88.2753 167.26 101.299 168.593C118.327 170.262 131.69 170.597 154.732 165.926C154.732 165.926 157.741 169.267 162.747 170.936C115.664 184.961 62.8975 172.269 96.6252 160.917V160.914ZM188.795 198.984C188.795 198.984 194.471 203.658 182.449 207.334C160.073 214.012 88.6104 216.019 68.5735 207.334C61.564 204.325 74.9197 199.982 79.2587 199.319C83.6012 198.317 85.9366 198.317 85.9366 198.317C78.2569 192.973 34.8424 209.337 63.8959 214.046C143.709 227.073 209.499 208.37 188.792 199.018L188.795 198.984ZM105.307 138.203C105.307 138.203 68.9052 146.888 92.2793 149.89C102.298 151.223 122 150.892 140.368 149.555C155.396 148.221 170.458 145.548 170.458 145.548C170.458 145.548 165.113 147.886 161.441 150.222C124.342 159.915 53.2107 155.573 73.5827 145.554C90.9526 137.204 105.307 138.203 105.307 138.203V138.203ZM170.423 174.604C207.83 155.234 190.46 136.534 178.438 138.873C175.429 139.54 174.096 140.207 174.096 140.207C174.096 140.207 175.097 138.203 177.436 137.54C201.145 129.19 219.849 162.586 169.757 175.61C169.757 175.61 170.092 175.275 170.423 174.608V174.604ZM108.979 227.364C145.046 229.703 200.147 226.03 201.484 208.995C201.484 208.995 198.817 215.673 171.764 220.683C141.042 226.359 102.968 225.692 80.5957 222.016C80.5957 222.016 85.2698 226.023 108.982 227.36L108.979 227.364Z"/><path fill="#F58219" d="M147.685 28C147.685 28 168.389 49.0388 127.983 80.7594C95.5891 106.472 120.632 121.168 127.983 137.861C108.948 120.833 95.2609 105.802 104.606 91.7762C118.331 71.0828 156.062 61.0644 147.685 28ZM137 123.842C146.683 134.862 134.333 144.881 134.333 144.881C134.333 144.881 159.044 132.195 147.692 116.494C137.338 101.466 129.324 94.1184 172.738 69.0689C172.738 69.0689 104.278 86.0968 137.007 123.835L137 123.842Z"/></svg>
        </g>
        
  </svg>
  