<?xml version="1.0"?>
<svg version="1.1" xmlns="http://www.w3.org/2000/svg" width="70" height="60" style=""><path fill="#25cc2a" d="M37.148,34.816q-1.036,0.42-1.778,0.42t-0.742-0.308q0-0.196,0.826-0.224t1.19-0.196q1.064-0.56,1.064-1.652q0-0.56-0.308-1.176q-0.896-1.596-4.34-1.596q-1.988,0-3.976,0.602t-3.332,1.848t-1.344,2.31q0,1.624,3.22,2.38l3.304,0.616q1.988,0.364,2.968,1.008q1.288,0.784,1.288,2.24q0,0.588-0.196,1.26q-0.896,3.024-4.62,4.62q-3.108,1.372-7.336,1.372q-1.204,0-2.1-0.112q0.896,0.504,2.352,0.868q0.112,0.028,0.112,0.112q0,0.252-0.588,0.252q-1.148,0-2.856-1.372q-2.324-0.364-3.472-1.288q-0.728-0.588-1.344-1.736t-0.616-2.072t0.364-1.54q0.84-1.484,2.128-1.484q0.98,0,1.148,1.652q0.392,3.192,0.532,3.64q0.42,1.372,1.428,2.324q1.176,0.252,2.548,0.252q3.024,0,5.936-1.204t4.2-3.416q0.532-0.868,0.532-1.54q0-1.316-2.324-2.044l-4.928-1.12q-1.512-0.364-2.422-1.204t-0.91-1.932q0-1.68,2.1-3.36q1.596-1.288,3.906-2.002t4.536-0.714t3.682,0.644q1.876,0.868,1.876,2.534t-1.708,2.338z M19.116,47.304q-1.624-1.792-2.072-4.9q-0.252-1.764-0.476-1.764t-0.42,0.126t-0.392,0.546t-0.196,1.092q0,2.156,1.512,3.696q0.756,0.784,2.044,1.204z"/><path fill="#cf2164" d="M64.32876,34.816q-1.036,0.42-1.778,0.42t-0.742-0.308q0-0.196,0.826-0.224t1.19-0.196q1.064-0.56,1.064-1.652q0-0.56-0.308-1.176q-0.896-1.596-4.34-1.596q-1.988,0-3.976,0.602t-3.332,1.848t-1.344,2.31q0,1.624,3.22,2.38l3.304,0.616q1.988,0.364,2.968,1.008q1.288,0.784,1.288,2.24q0,0.588-0.196,1.26q-0.896,3.024-4.62,4.62q-3.108,1.372-7.336,1.372q-1.204,0-2.1-0.112q0.896,0.504,2.352,0.868q0.112,0.028,0.112,0.112q0,0.252-0.588,0.252q-1.148,0-2.856-1.372q-2.324-0.364-3.472-1.288q-0.728-0.588-1.344-1.736t-0.616-2.072t0.364-1.54q0.84-1.484,2.128-1.484q0.98,0,1.148,1.652q0.392,3.192,0.532,3.64q0.42,1.372,1.428,2.324q1.176,0.252,2.548,0.252q3.024,0,5.936-1.204t4.2-3.416q0.532-0.868,0.532-1.54q0-1.316-2.324-2.044l-4.928-1.12q-1.512-0.364-2.422-1.204t-0.91-1.932q0-1.68,2.1-3.36q1.596-1.288,3.906-2.002t4.536-0.714t3.682,0.644q1.876,0.868,1.876,2.534t-1.708,2.338z M46.29676,47.304q-1.624-1.792-2.072-4.9q-0.252-1.764-0.476-1.764t-0.42,0.126t-0.392,0.546t-0.196,1.092q0,2.156,1.512,3.696q0.756,0.784,2.044,1.204z"/></svg>
